<?xml version="1.0" encoding="UTF-8"?>
<svg xmlns="http://www.w3.org/2000/svg" version="1.1" viewBox="0 0 120 120">
  <path
    fill="currentColor"
    d="M117.1,41.5l-8.5-16.7-13.3-13.3-16.7-8.5L60,0l-18.5,2.9-16.7,8.5-13.3,13.3L2.9,41.5,0,60l2.9,18.5,8.5,16.7,13.3,13.3,16.7,8.5,18.5,2.9,18.5-2.9,16.7-8.5,13.3-13.3,8.5-16.7,2.9-18.5-2.9-18.5ZM117.6,59l-2.7-.8,1-9.9,1.7,10.7ZM115.2,44l-1.2,11.9-3.8-11.7,4.7-1.5.2,1.3ZM104.6,54l-5-15.3,9.2,5.5-4.3,9.8ZM109.5,45.4l4,12.3-8.2-2.6,4.2-9.7ZM93.8,69.6l-4.1-18.2,14,4.4-9.9,13.8ZM94.1,71.6l11.9,3.9-12,12.9v-16.8ZM79.7,31.9l-10,13.8-8.7-15.5,18.7,1.7ZM61,29.1l8.5-11.9,10.1,13.7-18.6-1.7ZM80.6,32.6l7.4,17.3-17.4-3.5,10-13.8ZM81.7,32.4l16.1,5.3-8.7,11.8-7.4-17.1ZM89.9,50.3h0c0,0-.1-.1-.1-.1l8.6-11.6,5.2,16-13.8-4.3ZM99.5,37.3l5.1-6.9,4,12.3-9.1-5.4ZM98.8,36.4l-8.3-14.9,13.6,7.8-5.2,7.1ZM97.5,36.5l-15.9-5.3,7.3-10.1,8.6,15.4ZM80.7,30.5l-9.9-13.5,17.3,3.4-7.3,10.1ZM70.4,15.8l5.1-7.2,11.6,10.5-16.7-3.3ZM69.4,15.4l-7.9-7h12.9l-5,7ZM60.1,28.5h0c0,0,0,0,0,0l-8.4-11.8h16.9l-8.4,11.8ZM16.3,55.8l14-4.4-4.1,18.2-9.9-13.8ZM26,88.4l-12-12.9,11.9-3.9v16.8ZM30.1,50.3l-13.8,4.3,5.2-16,8.6,11.6h-.1s0,.1,0,.1ZM22.2,37.7l16.1-5.3-7.4,17.1-8.7-11.8ZM39.4,32.6l10,13.8-17.4,3.5,7.4-17.3ZM40.3,31.9l18.7-1.7-8.7,15.5-10-13.8ZM40.4,30.8l10-13.7,8.5,11.9-18.6,1.7ZM50.6,15.4l-5-7h12.9l-7.9,7ZM49.6,15.8l-16.7,3.3,11.6-10.5,5.1,7.2ZM49.2,17l-9.9,13.5-7.3-10.1,17.3-3.4ZM38.4,31.2l-15.9,5.3,8.6-15.4,7.3,10.1ZM21.2,36.4l-5.2-7.1,13.6-7.8-8.3,14.9ZM20.5,37.3l-9.1,5.4,4-12.3,5.1,6.9ZM20.3,38.6l-5,15.3-4.3-9.8,9.2-5.5ZM14.7,55.2l-8.2,2.6,4-12.3,4.2,9.7ZM14.8,56.3l-2,16.9-6.4-14.3,8.4-2.6ZM15.8,57l9.8,13.6-11.9,3.9,2.1-17.5ZM25.6,89.6l-8.3,2.8-3.2-15.3,11.6,12.5ZM26.2,90.5l2.3,10.3-10.5-7.6,8.2-2.7ZM27.4,91.1l13,9.5-10.7,1-2.3-10.5ZM27.1,89.1v-17c0,0,13.9,12.3,13.9,12.3l-13.9,4.7ZM31.3,51.7l12,13.1-16.2,5.3,4.1-18.3ZM32.1,50.9l17.4-3.5-5.4,16.6-12-13.1ZM44.8,66.1l14.1,10.2-16.2,7.4,2.1-17.6ZM50.5,47.9l8.6,11.8-13.9,4.5,5.3-16.3ZM60,30.7l8.7,15.5h-17.4l8.7-15.5ZM69.5,47.9l5.3,16.3-13.9-4.5,8.6-11.8ZM74.4,65.3l-13.9,10.1v-14.6l13.9,4.5ZM77.5,101.9v8.8c0,0-15.5-1.6-15.5-1.6l15.5-7.2ZM60.5,108.5v-12.5l16,5.1-16,7.4ZM61.3,95.1l16-9.5v14.7c.1,0-16-5.1-16-5.1ZM60.5,94.3v-17l16.2,7.4-16.2,9.6ZM61.1,76.3l14.1-10.2,2,17.7-16.2-7.4ZM70.5,47.4l17.4,3.5-12,13.1-5.4-16.6ZM88.6,51.7l4.1,18.3-16.2-5.3,12-13.1ZM93,72.1v17c-.1,0-14-4.7-14-4.7l14-12.3ZM93.8,90.6l8.1,2.7-10.5,7.6,2.3-10.3ZM90.2,101.6l-10.7-1,13-9.5-2.3,10.5ZM94.4,89.6l11.6-12.5-3.2,15.3-8.3-2.8ZM94.4,70.6l9.8-13.6,2.1,17.5-11.9-3.9ZM105.2,56.3l8.4,2.6-6.4,14.3-2-16.9ZM114.7,41.7l-4.8,1.5-3.8-11.7,8,9,.6,1.2ZM112.1,36.6l-6.6-7.4,1.7-2.2,4.9,9.7ZM106.6,25.9l-1.7,2.3-6.2-10.3,8,8ZM95.4,14.7l7.9,13-13.4-7.7,4.5-6.3,1,1ZM93.5,13l-4.5,6.3-11.5-10.4,14.8,3.5,1.3.7ZM88.1,10.3l-11.7-2.7,1.7-2.4,10,5.1ZM76.9,4.9l-1.6,2.3-9.1-4,10.7,1.7ZM60.5,2.3l1.3.2,11,4.8h-12.3V2.3ZM60,8.6l8,7.1h-16.1l8-7.1ZM59.4,2.3v5h-12.3l11-4.8,1.3-.2ZM53.8,3.2l-9.1,4-1.6-2.3,10.7-1.7ZM41.9,5.2l1.7,2.4-11.7,2.7,10-5.1ZM27.8,12.3l14.8-3.5-11.5,10.4-4.5-6.3,1.3-.7ZM25.6,13.6l4.5,6.3-13.4,7.7,7.9-13,1-1ZM21.4,17.9l-6.2,10.3-1.7-2.3,8-8ZM12.8,26.9l1.7,2.2-6.6,7.4,4.9-9.7ZM5.9,40.5l7.9-8.9-3.8,11.7-4.7-1.5.6-1.2ZM5,42.7l4.7,1.5-3.8,11.7-1.2-11.9.2-1.3ZM4.1,48.3l1,9.9-2.7.8,1.7-10.7ZM2.3,60.2l2.8-.9-1,12-1.8-11.1ZM4.7,75.9l1.3-15.1,6.3,14.2-7.4,2.4-.2-1.5ZM5.3,78.3l7.3-2.4,3.2,15.2-9.9-11.5-.7-1.3ZM8.1,83.8l7.8,9.1-2.7.9-5.1-10ZM14,94.7l2.6-.9,5,8.6-7.7-7.7ZM24.7,105.4l-6.1-10.3,9.9,7.2-2.9,4-.9-.9ZM26.5,107l2.9-4,9.9,7.2-11.7-2.6-1.2-.6ZM41.3,114.5l-9.7-4.9,9.7,2.1v2.8ZM41.3,110.2l-10.5-7.6,10.5-1v8.6ZM41.4,99.9l-13.6-9.9,13.7-4.6h0c0,.1.1,0,.1,0v14.4ZM27.6,71.1l16.2-5.3-2.1,17.7-14.1-12.4ZM58.7,95.1l-16.2,5.1v-14.7c.1,0,16.2,9.5,16.2,9.5ZM58,109l-15.6,1.6v-8.8c0,0,15.6,7.2,15.6,7.2ZM42.4,115v-2.9s11.1,4.7,11.1,4.7l-11.1-1.8ZM59.4,117.7l-1.4-.2-14-5.9,15.4-1.6v7.7ZM59.4,108.5l-16-7.4,16-5.1v12.5ZM59.4,94.3l-16.2-9.6,16.2-7.4v17ZM59.4,75.4l-13.9-10.1,13.9-4.5v14.6ZM51.4,47.3h17.2l-8.6,11.8-8.6-11.8ZM60.5,117.7v-7.7l15.4,1.6-14,5.9-1.4.2ZM66.5,116.7l11.1-4.6v2.9s-11.1,1.8-11.1,1.8ZM76.3,65.9l16.2,5.3-14.1,12.4-2.1-17.7ZM78.4,85.5h.1s0,0,0,0l13.7,4.6-13.6,9.9v-14.4ZM78.6,101.6l10.5,1-10.5,7.6v-8.6ZM78.7,114.5v-2.8s9.7-2.1,9.7-2.1l-9.7,4.9ZM92.3,107.6l-11.7,2.6,9.9-7.2,2.9,4-1.2.6ZM94.3,106.4l-2.9-4,9.9-7.2-6.1,10.3-.9.9ZM98.4,102.3l5-8.6,2.6.9-7.7,7.7ZM106.8,93.8l-2.7-.9,7.9-9.1-5.1,10ZM114,79.6l-9.9,11.5,3.2-15.2,7.4,2.4-.7,1.3ZM115,77.3l-7.4-2.4,6.3-14.2,1.3,15.2-.2,1.4ZM116,71.4l-1-12,2.8.9-1.8,11.1Z"
  />
</svg>
