<?xml version="1.0" encoding="UTF-8"?>
<svg id="Layer_1" xmlns="http://www.w3.org/2000/svg" width="512" height="512" version="1.1" viewBox="0 0 512 512">
  <!-- Generator: Adobe Illustrator 29.5.1, SVG Export Plug-In . SVG Version: 2.1.0 Build 141)  -->
  <rect width="512" height="512" style="fill: #231f20;"/>
  <path d="M499.8,179l-35.7-71.6-56.1-57-71-36.9L256,0l-76.9,12.2-71.6,35.7-57,56.1L13.5,174.9,0,256l12.2,76.9,35.7,71.6,56.1,57,70.9,36.9,81.1,13.6,76.9-12.2,71.6-35.7,57-56.1,36.9-71,13.6-81.1-12.2-76.9ZM473.8,319.4l-22.9-7.5,28.6-28.1-5.6,35.5ZM394.9,435.4l-26.4-36.4,58.5,4.3-32.1,32.1ZM71.6,389.9l-2.2-4.4,9.5-56.8,62.6,56.5-69.4,5.1-.4-.4ZM38.2,319.4l-5.6-35.5,28.5,28-22.9,7.4ZM38.2,192.5l42.7,13.9-49.8,30.9,7.1-44.7ZM117.1,76.6l14.2,19.5-39.6,5.9,25.4-25.4ZM440.3,122l.2.5-26.2,64.2-34.5-76.8,56.9,8.5,3.5,3.5ZM473.8,192.5l7.1,44.8-49.8-30.9,42.8-13.9ZM28.1,256v-.6c0,0,59-36.5,59-36.5l-17.3,82.4-41-40.4-.8-4.8ZM297,187.7l-41,56.4-41-56.4h82ZM213.6,173.8l42.4-71.1,42.4,71.1h-84.8ZM262.9,265.5l66.4,21.6-66.4,48.2v-69.8ZM249,335.3l-66.4-48.2,66.4-21.6v69.8ZM242.1,347.2l-76.3,32.7,7.5-82.5,68.8,49.8ZM338.6,297.4l7.5,82.5-76.3-32.6,68.8-50ZM333.5,273.8l-66.3-21.5,41-56.4,25.4,78ZM321,190.2l80.8,18.3-54.6,62.4-26.2-80.7ZM269,97.5l86.6,9.4-44.5,61.3-42.1-70.6ZM200.8,168.2l-44.5-61.3,86.7-9.5-42.2,70.8ZM244.7,252.3l-66.3,21.5,25.3-77.9,41,56.4ZM164.7,270.9l-54.6-62.4,80.8-18.3-26.2,80.7ZM101.1,219.3l54.3,62-72,23.4,17.8-85.4ZM159.7,294.5l-7.5,82-64.6-58.5,72.1-23.4ZM249,359.4v75.8l-75.8-43.3,75.8-32.5ZM262.9,359.4l75.6,32.4-75.6,43.4v-75.8ZM352.3,294.5l72.1,23.4-64.6,58.5-7.5-81.9ZM356.6,281.3l54.2-61.9,17.8,85.3-72-23.4ZM424.8,218.8l59,36.5v.6c0,0-.7,4.8-.7,4.8l-41.1,40.4-17.3-82.4ZM402.7,194.5l-80.3-18.2,44.6-61.3,35.7,79.5ZM356.5,93l-83.9-8.9,53.1-44.9h.6c0,.1,4.4,2.3,4.4,2.3l25.8,51.5ZM351.6,52.1l32,16.3-14.2,19.5-17.9-35.8ZM262.9,74.1V29.2l44.8,7.1-44.8,37.8ZM249,74.1l-44.7-37.8,44.7-7.1v44.9ZM185.5,39.3h.6c0,0,53,44.7,53,44.7l-83.7,9.1,25.7-51.5,4.4-2.2ZM142.5,87.9l-14.2-19.5,32-16.3-17.9,35.8ZM71.6,122l3.5-3.5,56.9-8.5-34.4,76.9-26.3-64.4.3-.6ZM145,115l44.5,61.3-80.2,18.2,35.7-79.5ZM154.7,407.1l14,57-40.4-20.6,26.4-36.4ZM168.5,405l73,41.9-51.2,26.6-4.8-.8-.5-.3-16.5-67.4ZM249,458.7v24.1l-35.6-5.6,35.6-18.5ZM262.9,458.6l35.6,18.5-35.6,5.6v-24.1ZM326.4,472.7l-4.8.8-51.1-26.6,73-41.9-16.5,67.4-.5.3ZM357.2,407.2l26.4,36.3-40.4,20.6,14-56.9ZM440.3,389.9l-.4.4-69.2-5.1,62.3-56.5,9.5,56.9-2.2,4.3ZM469.5,179.3l-42.7,13.9,22.2-54.3,20.6,40.4ZM420.3,102l-39.6-5.9,14.2-19.5,25.4,25.4ZM63,138.9l22.2,54.2-42.7-13.9,20.5-40.4ZM42.4,332.6l22.9-7.4-6.6,39.5-16.3-32.1ZM85,403.3l58.5-4.3-26.4,36.4-32.1-32.1ZM453.2,364.7l-6.6-39.6,23,7.5-16.4,32.1Z" style="fill: #fff;"/>
</svg>