<svg viewBox="0 0 41 40" fill="none" xmlns="http://www.w3.org/2000/svg">
<path d="M35.9749 8.39128L31.6065 4.02284L26.1012 1.21919L19.9988 0.251465L13.8964 1.21919L8.39109 4.02284L4.02266 8.39128L1.219 13.8966L0.251282 19.999L1.219 26.1013L4.02266 31.6066L8.39109 35.9751L13.8964 38.7812L19.9988 39.7489L26.1012 38.7812L31.6065 35.9751L35.9749 31.6066L38.7811 26.1013L39.7488 19.999L38.7811 13.8966L35.9749 8.39128Z" fill="url(#paint0_linear_416_4913)"/>
<path fill-rule="evenodd" clip-rule="evenodd" d="M19.9988 0L26.1788 0.980034L31.7541 3.81935L36.1781 8.24338L39.02 13.8187L40 19.9988L39.02 26.1788L36.1781 31.7542L31.7542 36.1781L26.1788 39.02L19.9988 40L13.8187 39.02L8.24337 36.1781L3.81935 31.7541L0.980033 26.1788L0 19.9988L0.980033 13.8188L3.81935 8.24343L8.24342 3.81935L13.8188 0.980034L19.9988 0ZM17.1402 15.753L19.9989 19.6876L22.8577 15.753H17.1402ZM16.843 15.9661L19.703 19.9026L15.0766 21.4059L16.843 15.9661ZM14.4625 21.6055L10.4495 17.2441L9.07145 23.3573L14.4625 21.6055ZM8.7334 23.1937L10.0997 17.133L5.43597 18.5986L8.7334 23.1937ZM2.12759 19.6382L4.92539 18.759L4.25333 24.4026L2.12759 19.6382ZM0.751996 20.0705L1.67134 19.7816L1.33829 23.7676L0.751996 20.0705ZM1.65536 25.7671L1.57866 25.2834L1.99935 20.2484L4.10629 24.9706L1.65536 25.7671ZM4.21722 25.3192L5.28862 30.3758L1.98975 26.5496L1.76838 26.1149L4.21722 25.3192ZM4.68237 25.168L8.67371 29.477L8.64084 23.8817L4.68237 25.168ZM9.18364 23.7054L13.8906 27.8427L14.5768 21.9529L9.18364 23.7054ZM13.6709 28.1365L9.00751 24.0375L9.04071 29.6907L13.6709 28.1365ZM8.53146 29.8616L4.67034 25.6932L5.75128 30.7948L8.53146 29.8616ZM5.29817 30.9469L2.68658 27.9179L4.38521 31.2534L5.29817 30.9469ZM14.9367 22.0243L14.2514 27.9066L19.6381 25.4398L14.9367 22.0243ZM19.816 25.7607L14.4256 28.2291L19.816 31.4302V25.7607ZM14.1645 33.415L14.2119 28.5275L19.5552 31.7008L14.1645 33.415ZM14.1309 36.8845L14.1594 33.9497L19.3206 36.3352L14.1309 36.8845ZM14.1169 38.3266L14.1263 37.3608L17.8309 38.9156L14.1169 38.3266ZM19.816 39.2304L19.35 39.1565L14.6755 37.1946L19.816 36.6505V39.2304ZM20.1817 36.1637L25.5112 33.6994L20.1817 32.0017V36.1637ZM20.1817 36.653V39.2304L20.6574 39.1549L25.3223 37.1971L20.1817 36.653ZM22.1764 38.9141L25.8782 38.327L25.8688 37.3644L22.1764 38.9141ZM25.8642 36.8867L25.8358 33.9523L20.677 36.3376L25.8642 36.8867ZM25.8306 33.4173L25.7832 28.5301L20.4424 31.7009L25.8306 33.4173ZM25.5698 28.2315L20.1817 31.4303V25.7608L25.5698 28.2315ZM20.3593 25.4399L25.0608 22.0243L25.7439 27.909L20.3593 25.4399ZM25.4207 21.9526L26.1045 27.8429L30.8144 23.705L25.4207 21.9526ZM30.9546 29.6937L26.3223 28.1384L30.99 24.0375L30.9546 29.6937ZM34.2438 30.798L31.4617 29.8639L35.325 25.6932L34.2438 30.798ZM35.6106 31.2569L34.6966 30.95L37.315 27.913L35.6106 31.2569ZM38.2316 26.1148L38.0133 26.543L34.7065 30.3783L35.7783 25.3178L38.2316 26.1148ZM35.428 24.8194L31.4705 23.5336L34.7316 18.9892L35.428 24.8194ZM30.9261 23.3567L25.5353 21.6053L29.5486 17.2459L30.9261 23.3567ZM29.8986 17.1357L34.5603 18.6006L31.2643 23.1937L29.8986 17.1357ZM35.0727 18.7617L37.8701 19.6407L35.7466 24.4028L35.0727 18.7617ZM38.3263 19.7841L38.659 23.7847L39.2475 20.0736L38.3263 19.7841ZM38.4183 25.3027L38.3446 25.767L35.8938 24.9707L37.9981 20.2517L38.4183 25.3027ZM25.2837 21.3387L23.4888 15.8111L29.2954 16.9809L25.2837 21.3387ZM23.5322 15.4468L26.8656 10.8588L29.3439 16.6176L23.5322 15.4468ZM29.6467 7.03122L27.2005 10.398L32.5122 12.1576L29.6467 7.03122ZM34.4133 9.21794L29.934 6.63579L31.4498 4.5495L31.7863 4.88603L34.4133 9.21794ZM27.2364 10.7952L29.6922 16.5016L32.6042 12.5734L27.2364 10.7952ZM32.8731 5.97286L35.5287 8.62841L34.9538 9.40387L32.8731 5.97286ZM30.1503 7.18265L34.6693 9.78766L32.9231 12.1432L30.1503 7.18265ZM29.9682 16.7434L32.8373 12.8732L34.5747 18.2218L29.9795 16.7778L30.0045 16.7507L29.9682 16.7434ZM39.2085 19.678L38.3176 19.398L38.6404 16.0956L39.2085 19.678ZM38.345 14.233L38.4131 14.6619L38.0246 18.6365L36.7618 14.7479L38.345 14.233ZM35.1051 18.3885L36.507 15.1477L37.8384 19.2474L35.1051 18.3885ZM35.1739 9.72115L37.3753 12.2029L35.7288 8.9726L35.1739 9.72115ZM38.0357 13.4985L38.2327 13.8849L36.6489 14.4L35.384 10.5092L38.0357 13.4985ZM34.8745 10.125L36.2077 14.226L33.1693 12.4253L34.8745 10.125ZM35.3139 25.1669L31.3568 23.8812L31.3217 29.4768L35.3139 25.1669ZM26.1486 28.4969L26.1822 28.5123L26.1779 28.4757L30.7407 30.0076L26.1953 33.3108L26.1486 28.4969ZM26.2424 38.1666L26.2334 37.2365L29.4638 36.5246L26.2424 38.1666ZM31.1508 35.6647L30.7581 35.8648L26.864 36.723L30.1732 34.3191L31.1508 35.6647ZM26.2007 33.8691L29.7145 34.2002L26.2285 36.7325L26.2007 33.8691ZM33.986 31.0972L31.2698 30.1853L30.4979 33.631L33.986 31.0972ZM31.7565 35.1413L31.4473 35.4506L30.469 34.1041L33.7784 31.7001L31.7565 35.1413ZM32.785 34.1128L34.4627 31.2573L35.3445 31.5533L32.785 34.1128ZM19.816 36.1613V32.0016L14.4845 33.697L19.816 36.1613ZM13.8171 28.4732L13.8129 28.5097L13.8465 28.4943L13.7998 33.3084L9.25193 30.0056L13.8171 28.4732ZM4.64999 31.5503L5.52995 31.2549L7.20773 34.108L4.64999 31.5503ZM8.54763 35.4479L8.23771 35.138L6.21485 31.6981L9.52383 34.1018L8.54763 35.4479ZM8.72474 30.1826L9.4952 33.6289L6.00674 31.0949L8.72474 30.1826ZM13.7667 36.7299L13.7944 33.8667L10.2787 34.1978L13.7667 36.7299ZM9.23239 35.8612L8.84346 35.663L9.81984 34.3166L13.1309 36.7204L9.23239 35.8612ZM10.5268 36.521L13.7618 37.2339L13.7527 38.1653L10.5268 36.521ZM4.57203 24.8193L8.52745 23.534L5.26628 18.9894L4.57203 24.8193ZM14.7139 21.3385L16.5088 15.811L10.7022 16.9786L14.7139 21.3385ZM12.7959 10.396L7.48541 12.1574L10.3503 7.03001L12.7959 10.396ZM13.1313 10.8576L10.651 16.6158L16.4655 15.4466L13.1313 10.8576ZM10.3039 16.4972L12.7609 10.793L7.39474 12.5728L10.3039 16.4972ZM7.0752 12.1418L5.32822 9.78521L9.84749 7.18006L7.0752 12.1418ZM5.04373 9.40144L4.46989 8.62736L7.12071 5.97653L5.04373 9.40144ZM8.20754 4.88971L5.58424 9.21547L10.0625 6.63395L8.54791 4.54933L8.20754 4.88971ZM10.0293 16.7408L7.16105 12.8717L5.42404 18.2189L10.0181 16.7752L9.99315 16.7481L10.0293 16.7408ZM4.26956 8.97127L4.82378 9.71888L2.62852 12.1936L4.26956 8.97127ZM1.76801 13.8834L1.96949 13.4877L4.61383 10.5067L3.34897 14.3975L1.76801 13.8834ZM5.12321 10.1228L3.78999 14.2239L6.82957 12.4246L5.12321 10.1228ZM1.65524 14.2313L3.23595 14.7454L1.97312 18.634L1.58567 14.67L1.65524 14.2313ZM1.35831 16.1037L1.68007 19.3955L0.792038 19.6745L1.35831 16.1037ZM2.15929 19.2449L3.49067 15.1451L4.89181 18.3862L2.15929 19.2449ZM13.0928 10.1824L10.6474 6.81672L16.4076 5.67562L13.0928 10.1824ZM16.7606 15.2306L13.428 10.6437L19.6683 10.065L16.7606 15.2306ZM16.831 5.71724L19.6655 9.69798L13.4813 10.2715L16.831 5.71724ZM14.8196 2.89232L16.5201 5.2805L10.9457 6.38478L14.8196 2.89232ZM13.9829 1.71731L14.5421 2.50266L10.6416 3.41891L13.9829 1.71731ZM14.1996 2.95881L9.27224 4.11628L8.84386 4.33444L10.3596 6.42067L14.1996 2.95881ZM20.3293 10.065L23.2371 15.2307L26.57 10.6435L20.3293 10.065ZM29.6382 6.42062L31.1539 4.33455L30.7248 4.11603L25.8004 2.9588L29.6382 6.42062ZM29.3549 3.41841L26.0146 1.71731L25.4558 2.50212L29.3549 3.41841ZM25.179 2.89086L23.4775 5.28045L29.0525 6.38485L25.179 2.89086ZM23.1667 5.71698L20.332 9.69794L26.5189 10.2715L23.1667 5.71698ZM29.3504 6.81672L26.9062 10.1807L23.5904 5.67566L29.3504 6.81672ZM22.9055 15.3872L19.9988 10.2235L17.0921 15.3872H22.9055ZM20.0169 9.50999L19.9988 9.47789L19.9807 9.51008L17.1878 5.58764H22.8098L20.0169 9.50999ZM25.6257 1.63295L25.0861 2.3908L22.0501 1.06592L25.6257 1.63295ZM20.1818 0.769652L20.6137 0.838135L24.2733 2.43514H20.1818V0.769652ZM23.133 5.13376L20.4834 2.80088H24.7941L23.133 5.13376ZM15.2035 2.80088L16.8647 5.13396L19.5145 2.80088H15.2035ZM14.9121 2.39169L14.3718 1.63295L17.9494 1.06562L14.9121 2.39169ZM19.3848 0.837982L15.7266 2.43514H19.8161V0.769591L19.3848 0.837982ZM23.1547 15.9664L20.2948 19.9026L24.9209 21.4056L23.1547 15.9664ZM24.8103 21.7542L20.1817 20.2504V25.1169L24.8103 21.7542ZM19.816 25.117V20.2504L15.1875 21.7544L19.816 25.117ZM17.3183 5.2219L19.999 2.86167L22.6796 5.2219H17.3183ZM6.77277 12.8832L3.69812 14.7033L5.11606 17.9832L6.77277 12.8832ZM9.14338 30.3788L9.92251 33.8639L13.481 33.5288L9.14338 30.3788ZM26.514 33.5313L30.0703 33.8664L30.8516 30.3792L26.514 33.5313ZM33.2252 12.8836L36.2997 14.7057L34.8818 17.9834L33.2252 12.8836Z" fill="white"/>
<defs>
<linearGradient id="paint0_linear_416_4913" x1="7.41795" y1="5.25146" x2="30.7144" y2="33.877" gradientUnits="userSpaceOnUse">
<stop stop-color="#EF4136"/>
<stop offset="0.318022" stop-color="#DF5153"/>
<stop offset="0.636522" stop-color="#AC0B1B"/>
<stop offset="0.891735" stop-color="#8F0411"/>
<stop offset="1" stop-color="#AC0B1B"/>
</linearGradient>
</defs>
</svg>
