<?xml version="1.0" encoding="UTF-8"?>
<svg
  xmlns="http://www.w3.org/2000/svg"
  xmlns:xlink="http://www.w3.org/1999/xlink"
  version="1.1"
  viewBox="0 0 512 512"
>
  <defs>
    <linearGradient
      id="linear-gradient"
      x1="1"
      y1="513.1"
      x2="2"
      y2="513.1"
      gradientTransform="translate(162693.4 -162030.4) rotate(-135.1) scale(447.5 -447.5)"
      gradientUnits="userSpaceOnUse"
    >
      <stop offset="0" stop-color="#ef4237" />
      <stop offset="0" stop-color="#ef4237" />
      <stop offset=".3" stop-color="#df5154" />
      <stop offset="1" stop-color="#ac1f23" />
    </linearGradient>
  </defs>
  <path
    d="M277.3,14c20.9,0,28,2.5,42.1,7.4,3.5,1.2,7.4,2.6,12.1,4.1,96.4,31.4,167.9,123.9,167.9,230.6s-2.5,37.1-6.2,54.1c-16.6,67.4-59.5,124.7-117.2,157.9-28.8,16.5-62.2,28.7-96.8,31-5.8.4-24.6.2-37.4,0-4.6,0-8.4,0-10.6,0C105.9,481.4,12.6,388.9,12.6,256.1s6.4-67.5,19.5-98.4c13.6-32.1,37-59.6,61.3-83.4,21.4-20.9,47.9-32.4,74-43.8,3.8-1.6,7.5-3.3,11.3-5,13.5-6,22.5-7.3,33.9-8.9,4.7-.7,9.8-1.4,15.8-2.6,10.5-2,21.6-1.3,32.6-.7,5.5.3,10.9.7,16.2.7Z"
    style="fill: url(#linear-gradient)"
  />
  <path
    d="M512,256l-2.5-15.5c-1-15.9-3.5-31.6-7.4-46.9l-2.7-16.8-8.9-17.5c-4.7-11.3-10.3-22.2-16.7-32.8l-10.7-21-20.1-20.1c-5-5.4-10.2-10.7-15.7-15.7l-20.9-20.9-25.1-12.8c-7.3-4.2-14.9-8.1-22.6-11.5l-23.7-12.1-16-2.5c-12.2-4.2-21.2-6.7-41.8-6.7s-.3,0-.5,0l-20.8-3.3-12.4,2c-5.7,0-11.4.4-17.1,1.5-5.5,1.1-10.2,1.8-14.7,2.4h-.7c-8.1,1.3-15.4,2.3-24,5l-10.2,1.6-31.2,15.9c-9,4.1-18,8.5-26.7,13.6l-13.5,6.9-6.4,6.4c-4.5,3.5-8.9,7.3-13.1,11.4-9.8,9.6-18.5,18.9-26.3,28l-10.8,10.8-4.6,9.1c-9.2,13-16.4,25.9-21.9,38.9-2.3,5.3-4.3,10.8-6.2,16.4l-3.6,7-1.6,10.1c-4.6,17.4-7.5,35.4-8.5,53.7l-2.4,15.3,2.4,14.8c1,19.8,4,38.9,9.1,57.1l1.1,7.2,2.6,5.1c7.7,23.2,18.7,44.8,32.8,64.4l.9,1.8,1.6,1.6c5.2,6.9,10.7,13.6,16.7,20,10,10.8,21,20.6,32.9,29.5l5.5,5.5,9,4.6c8,5.1,16.2,9.9,24.9,14.2,7.7,3.9,15.6,7.3,23.6,10.5l13.9,7.1,14.3,2.3c12.5,3.4,25.3,6.1,38.4,8h.7c0,.1.8.1.8.1,1.7,0,4.3,0,7.5,0h3c.4,0,.7,0,1.1,0l13.3,2.1,12.4-2c5,0,9,0,11.4-.3,15.9-1.1,32.2-4.2,48.5-9.2l6.8-1.1,7.4-3.8c13.1-4.9,26-11.1,38.7-18.3,4.4-2.5,8.6-5.2,12.8-7.9l12.4-6.3,11.9-11.9c10.6-9,20.5-18.9,29.5-29.5l15.3-15.3,11-21.7c5.6-9.5,10.6-19.3,15-29.5l10.3-20.3,2.7-17.2c.5-1.7.9-3.4,1.3-5.2v-.3c3-13.4,5-27.3,5.9-40.2l2.6-16.3ZM318.6,481.2l-55.1-28.6,88-50.4-18.2,74.3c-4.9,1.8-9.7,3.4-14.6,4.8ZM178.6,475.5l-18-73.4,87.9,50.5-53.9,28c-5.4-1.5-10.8-3.2-16-5.1ZM183.1,35.2c2.2-1,4.2-1.8,6.2-2.5l58.1,49.1-100.8,10.9,26.5-53c3.4-1.5,6.7-2.9,10.1-4.4ZM328.2,35.6c3.6,1.2,7.1,2.4,10.7,3.8l26.6,53.3-100.8-10.9,57.1-48.3c2,.7,4.1,1.4,6.5,2.1ZM488.2,241.6l-60.7-37.6,50.6-16.4c5.5,17.5,8.9,35.6,10.1,54ZM475.9,180.8l-50.5,16.4,26.6-65.3c9.9,15.5,17.9,31.8,23.9,48.8ZM443,118.9c1.4,2,2.8,3.9,4.2,5.9l-28.2,69.1-41.5-92.5,58.8,8.8c2.3,2.8,4.6,5.7,6.7,8.6ZM261.8,254.1l49.2-67.7,30.4,93.5-79.5-25.8ZM339.2,286.7l-79.6,57.8v-83.7l79.6,25.9ZM317.5,183.6l95.1,21.6-64.2,73.4-30.8-94.9ZM318.2,176.4l52.6-72.4,42.2,93.9-94.8-21.5ZM312.4,172.2l-49.7-83.4,102.3,11.1-52.6,72.4ZM259.5,23.9c.3,0,.6,0,.8,0,5.7.4,11.4.7,16.9.7,18.1,0,24.1,1.8,36.6,6.1l-54.3,46V23.9ZM305.9,175.1h-99.8l49.9-83.7,49.9,83.7ZM201,186.4l49.2,67.7-79.5,25.8,30.4-93.5ZM163.6,278.5l-64.2-73.4,95.1-21.6-30.8,94.9ZM199.5,172.2l-52.6-72.4,102.3-11.1-49.7,83.4ZM193.8,176.4l-94.8,21.5,42.2-93.9,52.6,72.4ZM158.8,283.8l-85.1,27.6,21.1-100.7,64,73.1ZM161.1,290.6l-8.8,96.8-76.4-69.2,85.2-27.7ZM168.1,292.1l80.7,58.6-89.5,38.4,8.9-97ZM252.4,357v89.6l-89.3-51.3,89.3-38.3ZM172.8,286.8l79.6-25.9v83.7l-79.6-57.8ZM206.8,182.3h98.3l-49.2,67.7-49.2-67.7ZM259.6,357l89.3,38.3-89.3,51.3v-89.6ZM263.2,350.8l80.7-58.6,8.8,97.1-89.6-38.4ZM350.9,290.6l85.2,27.7-76.3,69.2-8.8-96.8ZM353.2,283.8l64-73.1,21.1,100.7-85.1-27.6ZM429.2,102l-51.3-7.7,17.2-23.6c12.3,9.3,23.8,19.8,34.1,31.3ZM389.3,66.4l-17.2,23.6-23.2-46.5c14.1,6.2,27.7,13.9,40.4,22.9ZM214.1,27.1h.7c4.6-.8,9.7-1.5,15.6-2.7,6.9-1.3,14.2-1.3,21.9-1v53.2l-55.1-46.6c5.5-1.4,10.6-2.2,16.7-3ZM162.8,44.1l-22.9,45.9-18-24.7c12.9-8.4,26.9-15,40.9-21.2ZM134.1,94.3l-52.6,7.9c5.9-6.6,12.3-13.3,19.4-20.2,4.7-4.6,9.8-8.8,15.1-12.6l18.1,24.9ZM74.3,110.5l60.1-9-41.5,92.5-28.8-70.5c3.1-4.3,6.5-8.6,10.2-13ZM86.6,197.2l-51.5-16.7c2.1-6.4,4.3-12.6,6.9-18.7,4.4-10.5,10.1-20.9,17.3-31.4l27.3,66.8ZM84.4,204l-60.7,37.6c1.1-18.5,4.2-36.8,9.3-54.3l51.4,16.7ZM23.3,256.1c0-2,0-3.9,0-5.9l64.2-39.8-20.8,99.2-43.3-42.6c-.1-3.6-.2-7.3-.2-10.9ZM24.2,277.7l38,37.4-29.5,9.6c-4.3-15-7.2-30.8-8.5-47ZM34.8,331.6l29.7-9.6-9.2,55c-8.5-14.2-15.4-29.4-20.5-45.4ZM61,386l10.4-62.2,75.2,68.1-77.3,5.7c-2.9-3.8-5.6-7.6-8.3-11.6ZM82.7,413.5c-2.8-3-5.4-6-8-9.1l73-5.4-31.8,43.8c-12-8.7-23.1-18.5-33.1-29.3ZM121.7,446.9l31.8-43.8,17,69.3c-17.5-6.8-33.8-15.3-48.8-25.6ZM241.8,488.5h-3c-2.9,0-5.3,0-7,0-9.2-1.3-18.2-3.1-27-5.2l47.5-24.7v30.1c-4,0-7.8,0-10.6,0ZM278.4,488.5c-3.1.2-10.8.2-18.8.2v-30.1l48.7,25.3c-10.1,2.4-20.1,3.9-29.9,4.6ZM370.6,458.8c-9.6,5.5-19.5,10.3-29.3,14.4l17.2-70.1,31.4,43.2c-6.2,4.5-12.6,8.6-19.3,12.4ZM364.3,399l70.4,5.2c-11.5,14.1-24.7,26.9-39.1,38l-31.4-43.2ZM440,397.4l-74.6-5.5,75.1-68.1,9.8,58.9c-3.3,5-6.7,10-10.3,14.7ZM447.5,321.9l28.3,9.2c-5.2,14.8-11.9,29-19.7,42.3l-8.6-51.5ZM449.7,315.2l37.8-37.2c-1,9.7-2.6,19.9-4.7,29.8-1.4,5.6-3,11.1-4.7,16.6l-28.3-9.2ZM445.2,309.6l-20.8-99.2,64.2,39.8c0,2,0,3.9,0,5.9,0,3.5-.1,7.2-.3,11l-43.2,42.5Z"
    fill="#FFFFFF"
  />
</svg>
